<?xml version="1.0" encoding="UTF-8"?>
<svg xmlns="http://www.w3.org/2000/svg" xmlns:xlink="http://www.w3.org/1999/xlink" width="0" height="0">
<symbol id="check-light" width="10" height="8" viewBox="0 0 10 8" ><path d="M8.46075 0.489312C8.62509 0.344885 8.84379 0.26504 9.0707 0.266625C9.29761 0.26821 9.51498 0.351101 9.67694 0.497807C9.83889 0.644513 9.93278 0.84356 9.93878 1.05295C9.94477 1.26233 9.86242 1.46568 9.70908 1.62008L5.05408 6.99393C4.97404 7.07351 4.87743 7.13738 4.77004 7.18171C4.66264 7.22604 4.54667 7.24992 4.42904 7.25193C4.31142 7.25394 4.19456 7.23404 4.08546 7.19341C3.97637 7.15278 3.87726 7.09226 3.79408 7.01547L0.707082 4.16593C0.621114 4.09198 0.552162 4.00281 0.504338 3.90374C0.456514 3.80466 0.430798 3.69771 0.428725 3.58926C0.426652 3.48081 0.448264 3.37309 0.492272 3.27252C0.53628 3.17194 0.601782 3.08058 0.684871 3.00389C0.767959 2.92719 0.866932 2.86673 0.975885 2.8261C1.08484 2.78548 1.20154 2.76553 1.31903 2.76744C1.43651 2.76936 1.55238 2.7931 1.65971 2.83724C1.76704 2.88139 1.86364 2.94503 1.94375 3.02439L4.38675 5.27839L8.43858 0.513005C8.44588 0.504714 8.45367 0.496804 8.46192 0.489312H8.46075Z"/></symbol><symbol id="check-dark" width="10" height="8" viewBox="0 0 10 8" ><path d="M8.44558 0.255056C8.61838 0.089653 8.84834 -0.00178848 9.08693 2.65108e-05C9.32551 0.0018415 9.55407 0.0967713 9.72436 0.264784C9.89466 0.432797 9.99337 0.660752 9.99968 0.900549C10.006 1.14034 9.91939 1.37323 9.75816 1.55005L4.86357 7.70436C4.7794 7.79551 4.67782 7.86865 4.5649 7.91942C4.45198 7.97018 4.33003 7.99754 4.20636 7.99984C4.08268 8.00214 3.95981 7.97935 3.8451 7.93282C3.73038 7.88629 3.62618 7.81698 3.53872 7.72903L0.292827 4.46564C0.202435 4.38096 0.129933 4.27884 0.0796475 4.16537C0.0293621 4.05191 0.00232279 3.92942 0.000143182 3.80522C-0.00203643 3.68102 0.0206883 3.55765 0.0669613 3.44248C0.113234 3.3273 0.182108 3.22267 0.269473 3.13483C0.356838 3.047 0.460905 2.97775 0.575465 2.93123C0.690026 2.88471 0.812734 2.86186 0.936267 2.86405C1.0598 2.86624 1.18163 2.89343 1.29449 2.94398C1.40734 2.99454 1.50892 3.06743 1.59315 3.15831L4.16189 5.73967L8.42227 0.28219C8.42994 0.272694 8.43813 0.263635 8.4468 0.255056H8.44558Z"/></symbol></svg>